
<svg width="36" height="36" viewBox="0 0 36 36" fill="none" xmlns="http://www.w3.org/2000/svg">
<path d="M24.999 20.6732L24 19.7792V12.0002C24 10.4089 23.3679 8.88275 22.2426 7.75753C21.1174 6.63232 19.5913 6.00018 18 6.00018C16.4087 6.00018 14.8826 6.63232 13.7574 7.75753C12.6321 8.88275 12 10.4089 12 12.0002V19.7792L11.001 20.6732C9.55211 21.9675 8.49075 23.6385 7.93501 25.5002H28.065C27.5093 23.6385 26.4479 21.9675 24.999 20.6732ZM22.5 28.5002C22.5 29.6936 22.0259 30.8382 21.182 31.6822C20.3381 32.5261 19.1935 33.0002 18 33.0002C16.8065 33.0002 15.6619 32.5261 14.818 31.6822C13.9741 30.8382 13.5 29.6936 13.5 28.5002H4.50001C4.49816 26.6005 4.89814 24.722 5.67369 22.9878C6.44924 21.2537 7.58282 19.7032 9.00001 18.4382V12.0002C9.00001 9.61323 9.94822 7.32404 11.636 5.63621C13.3239 3.94839 15.6131 3.00018 18 3.00018C20.387 3.00018 22.6761 3.94839 24.364 5.63621C26.0518 7.32404 27 9.61323 27 12.0002V18.4382C28.4172 19.7032 29.5508 21.2537 30.3263 22.9878C31.1019 24.722 31.5019 26.6005 31.5 28.5002H22.5ZM18 30.0002C18.3978 30.0002 18.7794 29.8421 19.0607 29.5608C19.342 29.2795 19.5 28.898 19.5 28.5002H16.5C16.5 28.898 16.658 29.2795 16.9393 29.5608C17.2207 29.8421 17.6022 30.0002 18 30.0002Z" fill="#CACACA"/>
</svg>
