<svg width="36" height="36" viewBox="0 0 36 36" fill="none" xmlns="http://www.w3.org/2000/svg">
<path d="M24.999 20.673L24 19.779V12C24 10.4087 23.3679 8.88258 22.2426 7.75736C21.1174 6.63214 19.5913 6 18 6C16.4087 6 14.8826 6.63214 13.7574 7.75736C12.6321 8.88258 12 10.4087 12 12V19.779L11.001 20.673C9.55211 21.9674 8.49075 23.6383 7.93501 25.5H28.065C27.5093 23.6383 26.4479 21.9674 24.999 20.673ZM22.5 28.5C22.5 29.6935 22.0259 30.8381 21.182 31.682C20.3381 32.5259 19.1935 33 18 33C16.8065 33 15.6619 32.5259 14.818 31.682C13.9741 30.8381 13.5 29.6935 13.5 28.5H4.50001C4.49816 26.6003 4.89814 24.7218 5.67369 22.9876C6.44924 21.2535 7.58282 19.703 9.00001 18.438V12C9.00001 9.61305 9.94822 7.32387 11.636 5.63604C13.3239 3.94821 15.6131 3 18 3C20.387 3 22.6761 3.94821 24.364 5.63604C26.0518 7.32387 27 9.61305 27 12V18.438C28.4172 19.703 29.5508 21.2535 30.3263 22.9876C31.1019 24.7218 31.5019 26.6003 31.5 28.5H22.5ZM18 30C18.3978 30 18.7794 29.842 19.0607 29.5607C19.342 29.2794 19.5 28.8978 19.5 28.5H16.5C16.5 28.8978 16.658 29.2794 16.9393 29.5607C17.2207 29.842 17.6022 30 18 30Z" fill="#31AD5F"/>
</svg>
