<?xml version="1.0" encoding="UTF-8"?>
<svg xmlns="http://www.w3.org/2000/svg" xmlns:xlink="http://www.w3.org/1999/xlink" width="646px" height="775px" viewBox="0 0 646 775" version="1.1">
<g id="surface1">
<path style=" stroke:none;fill-rule:nonzero;fill:rgb(67.843139%,87.058824%,74.901962%);fill-opacity:1;" d="M 646 774.28125 C 646 746.007812 640.429688 718.015625 629.609375 691.898438 C 618.785156 665.78125 602.925781 642.046875 582.929688 622.058594 C 562.933594 602.066406 539.195312 586.210938 513.070312 575.390625 C 486.945312 564.574219 458.945312 559.003906 430.667969 559.003906 L 430.667969 774.28125 Z M 646 774.28125 "/>
<path style=" stroke:none;fill-rule:nonzero;fill:rgb(83.92157%,93.725491%,87.450981%);fill-opacity:1;" d="M 0 559.003906 C 0 587.277344 5.570312 615.269531 16.390625 641.386719 C 27.210938 667.507812 43.074219 691.238281 63.070312 711.230469 C 83.066406 731.21875 106.804688 747.078125 132.929688 757.894531 C 159.054688 768.714844 187.054688 774.28125 215.332031 774.28125 L 215.332031 559.003906 Z M 0 559.003906 "/>
<path style=" stroke:none;fill-rule:nonzero;fill:rgb(51.764709%,80.784315%,62.352943%);fill-opacity:1;" d="M 215.332031 344.445312 C 187.054688 344.445312 159.054688 350.011719 132.929688 360.832031 C 106.804688 371.652344 83.066406 387.507812 63.070312 407.496094 C 43.074219 427.488281 27.210938 451.21875 16.390625 477.339844 C 5.570312 503.457031 0 531.453125 0 559.722656 L 215.332031 559.722656 Z M 215.332031 344.445312 "/>
<path style=" stroke:none;fill-rule:nonzero;fill:rgb(83.92157%,93.725491%,87.450981%);fill-opacity:1;" d="M 0 116.96875 C 0 145.238281 5.570312 173.230469 16.390625 199.351562 C 27.210938 225.46875 43.074219 249.203125 63.070312 269.191406 C 83.066406 289.183594 106.804688 305.039062 132.929688 315.859375 C 159.054688 326.675781 187.054688 332.246094 215.332031 332.246094 L 215.332031 116.96875 Z M 0 116.96875 "/>
<path style=" stroke:none;fill-rule:nonzero;fill:rgb(67.843139%,87.058824%,74.901962%);fill-opacity:1;" d="M 215.332031 775 C 215.332031 746.726562 209.761719 718.734375 198.941406 692.617188 C 188.121094 666.496094 172.257812 642.765625 152.261719 622.777344 C 132.269531 602.785156 108.53125 586.929688 82.40625 576.109375 C 56.277344 565.289062 28.277344 559.722656 0 559.722656 L 0 775 Z M 215.332031 775 "/>
<path style=" stroke:none;fill-rule:nonzero;fill:rgb(67.843139%,87.058824%,74.901962%);fill-opacity:1;" d="M 430.667969 559.722656 C 430.667969 531.453125 425.097656 503.457031 414.277344 477.339844 C 403.453125 451.21875 387.59375 427.488281 367.597656 407.496094 C 347.601562 387.507812 323.863281 371.652344 297.738281 360.832031 C 271.613281 350.011719 243.613281 344.445312 215.332031 344.445312 L 215.332031 559.722656 Z M 430.667969 559.722656 "/>
<path style=" stroke:none;fill-rule:nonzero;fill:rgb(67.843139%,87.058824%,74.901962%);fill-opacity:1;" d="M 430.667969 559.722656 C 430.667969 531.453125 425.097656 503.457031 414.277344 477.339844 C 403.453125 451.21875 387.59375 427.488281 367.597656 407.496094 C 347.601562 387.507812 323.863281 371.652344 297.738281 360.832031 C 271.613281 350.011719 243.613281 344.445312 215.332031 344.445312 L 215.332031 559.722656 Z M 430.667969 559.722656 "/>
<path style=" stroke:none;fill-rule:nonzero;fill:rgb(83.92157%,93.725491%,87.450981%);fill-opacity:1;" d="M 215.332031 559.003906 C 215.332031 587.277344 220.902344 615.269531 231.722656 641.386719 C 242.546875 667.507812 258.40625 691.238281 278.402344 711.230469 C 298.398438 731.21875 322.136719 747.078125 348.261719 757.894531 C 374.386719 768.714844 402.386719 774.28125 430.667969 774.28125 L 430.667969 559.003906 Z M 215.332031 559.003906 "/>
<path style=" stroke:none;fill-rule:nonzero;fill:rgb(51.764709%,80.784315%,62.352943%);fill-opacity:1;" d="M 430.667969 775 C 430.667969 746.726562 425.097656 718.734375 414.277344 692.617188 C 403.453125 666.496094 387.59375 642.765625 367.597656 622.777344 C 347.601562 602.785156 323.863281 586.929688 297.738281 576.109375 C 271.613281 565.289062 243.613281 559.722656 215.332031 559.722656 L 215.332031 775 Z M 430.667969 775 "/>
<path style=" stroke:none;fill-rule:nonzero;fill:rgb(51.764709%,80.784315%,62.352943%);fill-opacity:1;" d="M 215.332031 344.445312 C 215.332031 316.171875 209.761719 288.179688 198.941406 262.0625 C 188.121094 235.941406 172.257812 212.210938 152.261719 192.21875 C 132.269531 172.230469 108.53125 156.371094 82.40625 145.554688 C 56.277344 134.734375 28.277344 129.167969 0 129.167969 L 0 344.445312 Z M 215.332031 344.445312 "/>
<path style=" stroke:none;fill-rule:nonzero;fill:rgb(67.843139%,87.058824%,74.901962%);fill-opacity:1;" d="M 215.332031 128.449219 C 215.332031 100.179688 209.761719 72.183594 198.941406 46.066406 C 188.121094 19.945312 172.257812 -3.785156 152.261719 -23.773438 C 132.269531 -43.765625 108.53125 -59.621094 82.40625 -70.441406 C 56.277344 -81.261719 28.277344 -86.828125 0 -86.828125 L 0 128.449219 Z M 215.332031 128.449219 "/>
<path style=" stroke:none;fill-rule:nonzero;fill:rgb(83.92157%,93.725491%,87.450981%);fill-opacity:1;" d="M 0 559.722656 C 28.277344 559.722656 56.277344 554.152344 82.40625 543.335938 C 108.53125 532.515625 132.269531 516.660156 152.261719 496.667969 C 172.257812 476.679688 188.121094 452.945312 198.941406 426.828125 C 209.761719 400.707031 215.332031 372.714844 215.332031 344.445312 L 0 344.445312 Z M 0 559.722656 "/>
</g>
</svg>
