<svg width="900" height="1080" viewBox="0 0 900 1080" fill="none" xmlns="http://www.w3.org/2000/svg">
<path d="M900 1079C900 1039.6 892.24 1000.59 877.164 964.195C862.087 927.797 839.99 894.726 812.132 866.868C784.274 839.01 751.203 816.913 714.805 801.836C678.407 786.76 639.397 779 600 779V1079H900Z" fill="#ADDEBF"/>
<path d="M0 779C0 818.397 7.7597 857.407 22.8361 893.805C37.9125 930.203 60.0104 963.274 87.868 991.132C115.726 1018.99 148.797 1041.09 185.195 1056.16C221.593 1071.24 260.603 1079 300 1079V779H0Z" fill="#D6EFDF"/>
<path d="M300 480C260.603 480 221.593 487.76 185.195 502.836C148.797 517.913 115.726 540.01 87.868 567.868C60.0104 595.726 37.9125 628.797 22.8361 665.195C7.75973 701.593 -1.72208e-06 740.603 0 780H300V480Z" fill="#84CE9F"/>
<path d="M0 163C0 202.397 7.7597 241.407 22.8361 277.805C37.9125 314.203 60.0104 347.274 87.868 375.132C115.726 402.99 148.797 425.087 185.195 440.164C221.593 455.24 260.603 463 300 463V163H0Z" fill="#D6EFDF"/>
<path d="M300 1080C300 1040.6 292.24 1001.59 277.164 965.195C262.087 928.797 239.99 895.726 212.132 867.868C184.274 840.01 151.203 817.913 114.805 802.836C78.4073 787.76 39.3965 780 0 780V1080H300Z" fill="#ADDEBF"/>
<path d="M600 780C600 740.603 592.24 701.593 577.164 665.195C562.087 628.797 539.99 595.726 512.132 567.868C484.274 540.01 451.203 517.913 414.805 502.836C378.407 487.76 339.397 480 300 480V780H600Z" fill="#ADDEBF"/>
<path d="M600 780C600 740.603 592.24 701.593 577.164 665.195C562.087 628.797 539.99 595.726 512.132 567.868C484.274 540.01 451.203 517.913 414.805 502.836C378.407 487.76 339.397 480 300 480V780H600Z" fill="#ADDEBF"/>
<path d="M300 779C300 818.397 307.76 857.407 322.836 893.805C337.913 930.203 360.01 963.274 387.868 991.132C415.726 1018.99 448.797 1041.09 485.195 1056.16C521.593 1071.24 560.603 1079 600 1079V779H300Z" fill="#D6EFDF"/>
<path d="M600 1080C600 1040.6 592.24 1001.59 577.164 965.195C562.087 928.797 539.99 895.726 512.132 867.868C484.274 840.01 451.203 817.913 414.805 802.836C378.407 787.76 339.397 780 300 780V1080H600Z" fill="#84CE9F"/>
<path d="M300 480C300 440.603 292.24 401.593 277.164 365.195C262.087 328.797 239.99 295.726 212.132 267.868C184.274 240.01 151.203 217.913 114.805 202.836C78.4073 187.76 39.3965 180 0 180V480H300Z" fill="#84CE9F"/>
<path d="M300 179C300 139.603 292.24 100.593 277.164 64.195C262.087 27.7973 239.99 -5.27446 212.132 -33.132C184.274 -60.9896 151.203 -83.0875 114.805 -98.1639C78.4073 -113.24 39.3965 -121 0 -121V179H300Z" fill="#ADDEBF"/>
<path d="M0 780C39.3966 780 78.4073 772.24 114.805 757.164C151.203 742.087 184.274 719.99 212.132 692.132C239.99 664.274 262.087 631.203 277.164 594.805C292.24 558.407 300 519.397 300 480H0V780Z" fill="#D6EFDF"/>
</svg>
