<svg width="1200" height="1080" viewBox="0 0 1200 1080" fill="none" xmlns="http://www.w3.org/2000/svg">
<path d="M900 1079C900 1039.6 892.24 1000.59 877.164 964.195C862.087 927.797 839.99 894.726 812.132 866.868C784.274 839.01 751.203 816.913 714.805 801.836C678.407 786.76 639.397 779 600 779V1079H900Z" fill="#ADDEBF"/>
<path d="M0 779C0 818.397 7.7597 857.407 22.8361 893.805C37.9125 930.203 60.0104 963.274 87.868 991.132C115.726 1018.99 148.797 1041.09 185.195 1056.16C221.593 1071.24 260.603 1079 300 1079V779H0Z" fill="#D6EFDF"/>
<path d="M300 480C260.603 480 221.593 487.76 185.195 502.836C148.797 517.913 115.726 540.01 87.868 567.868C60.0104 595.726 37.9125 628.797 22.8361 665.195C7.75973 701.593 -1.72208e-06 740.603 0 780H300V480Z" fill="#84CE9F"/>
<path d="M900 -120C860.603 -120 821.593 -112.24 785.195 -97.1639C748.797 -82.0875 715.726 -59.9896 687.868 -32.132C660.01 -4.27444 637.913 28.7973 622.836 65.195C607.76 101.593 600 140.603 600 180H900V-120Z" fill="#84CE9F"/>
<path d="M600 -120C560.603 -120 521.593 -112.24 485.195 -97.1639C448.797 -82.0875 415.726 -59.9896 387.868 -32.132C360.01 -4.27444 337.913 28.7973 322.836 65.195C307.76 101.593 300 140.603 300 180H600V-120Z" fill="#84CE9F"/>
<path d="M0 179C0 218.397 7.7597 257.407 22.8361 293.805C37.9125 330.203 60.0104 363.274 87.868 391.132C115.726 418.99 148.797 441.087 185.195 456.164C221.593 471.24 260.603 479 300 479V179H0Z" fill="#D6EFDF"/>
<path d="M300 479C300 518.397 307.76 557.407 322.836 593.805C337.913 630.203 360.01 663.274 387.868 691.132C415.726 718.99 448.797 741.087 485.195 756.164C521.593 771.24 560.603 779 600 779V479H300Z" fill="#D6EFDF"/>
<path d="M300 1080C300 1040.6 292.24 1001.59 277.164 965.195C262.087 928.797 239.99 895.726 212.132 867.868C184.274 840.01 151.203 817.913 114.805 802.836C78.4073 787.76 39.3965 780 0 780V1080H300Z" fill="#ADDEBF"/>
<path d="M300 180C300 219.397 307.76 258.407 322.836 294.805C337.913 331.203 360.01 364.274 387.868 392.132C415.726 419.99 448.797 442.087 485.195 457.164C521.593 472.24 560.603 480 600 480V180H300Z" fill="#ADDEBF"/>
<path d="M600 479C600 518.397 607.76 557.407 622.836 593.805C637.913 630.203 660.01 663.274 687.868 691.132C715.726 718.99 748.797 741.087 785.195 756.164C821.593 771.24 860.603 779 900 779V479H600Z" fill="#ADDEBF"/>
<path d="M600 780C600 740.603 592.24 701.593 577.164 665.195C562.087 628.797 539.99 595.726 512.132 567.868C484.274 540.01 451.203 517.913 414.805 502.836C378.407 487.76 339.397 480 300 480V780H600Z" fill="#ADDEBF"/>
<path d="M300 779C300 818.397 307.76 857.407 322.836 893.805C337.913 930.203 360.01 963.274 387.868 991.132C415.726 1018.99 448.797 1041.09 485.195 1056.16C521.593 1071.24 560.603 1079 600 1079V779H300Z" fill="#D6EFDF"/>
<path d="M600 1080C600 1040.6 592.24 1001.59 577.164 965.195C562.087 928.797 539.99 895.726 512.132 867.868C484.274 840.01 451.203 817.913 414.805 802.836C378.407 787.76 339.397 780 300 780V1080H600Z" fill="#84CE9F"/>
<path d="M600 480C600 440.603 592.24 401.593 577.164 365.195C562.087 328.797 539.99 295.726 512.132 267.868C484.274 240.01 451.203 217.913 414.805 202.836C378.407 187.76 339.397 180 300 180V480H600Z" fill="#84CE9F"/>
<path d="M900 779C900 739.603 892.24 700.593 877.164 664.195C862.087 627.797 839.99 594.726 812.132 566.868C784.274 539.01 751.203 516.913 714.805 501.836C678.407 486.76 639.397 479 600 479V779H900Z" fill="#84CE9F"/>
<path d="M0 180C0 140.603 7.7597 101.593 22.8361 65.195C37.9125 28.7973 60.0104 -4.27446 87.868 -32.132C115.726 -59.9896 148.797 -82.0875 185.195 -97.1639C221.593 -112.24 260.603 -120 300 -120V180H0Z" fill="#84CE9F"/>
<path d="M300 480C300 440.603 292.24 401.593 277.164 365.195C262.087 328.797 239.99 295.726 212.132 267.868C184.274 240.01 151.203 217.913 114.805 202.836C78.4073 187.76 39.3965 180 0 180V480H300Z" fill="#84CE9F"/>
<path d="M300 179C300 139.603 292.24 100.593 277.164 64.195C262.087 27.7973 239.99 -5.27446 212.132 -33.132C184.274 -60.9896 151.203 -83.0875 114.805 -98.1639C78.4073 -113.24 39.3965 -121 0 -121V179H300Z" fill="#ADDEBF"/>
<path d="M0 780C39.3966 780 78.4073 772.24 114.805 757.164C151.203 742.087 184.274 719.99 212.132 692.132C239.99 664.274 262.087 631.203 277.164 594.805C292.24 558.407 300 519.397 300 480H0V780Z" fill="#D6EFDF"/>
<path d="M600 180C639.397 180 678.407 172.24 714.805 157.164C751.203 142.087 784.274 119.99 812.132 92.132C839.99 64.2744 862.087 31.2027 877.164 -5.19498C892.24 -41.5927 900 -80.6035 900 -120H600V180Z" fill="#D6EFDF"/>
<path d="M600 480C639.397 480 678.407 472.24 714.805 457.164C751.203 442.087 784.274 419.99 812.132 392.132C839.99 364.274 862.087 331.203 877.164 294.805C892.24 258.407 900 219.397 900 180H600V480Z" fill="#D6EFDF"/>
<path d="M300 180C339.397 180 378.407 172.24 414.805 157.164C451.203 142.087 484.274 119.99 512.132 92.132C539.99 64.2744 562.087 31.2027 577.164 -5.19498C592.24 -41.5927 600 -80.6035 600 -120H300V180Z" fill="#D6EFDF"/>
<path d="M900 180C860.603 180 821.593 187.76 785.195 202.836C748.797 217.913 715.726 240.01 687.868 267.868C660.01 295.726 637.913 328.797 622.836 365.195C607.76 401.593 600 440.603 600 480H900V180Z" fill="#84CE9F"/>
<path d="M600 780C600 819.397 607.76 858.407 622.836 894.805C637.913 931.203 660.01 964.274 687.868 992.132C715.726 1019.99 748.797 1042.09 785.195 1057.16C821.593 1072.24 860.603 1080 900 1080V780H600Z" fill="#D6EFDF"/>
</svg>
