<svg width="64" height="64" viewBox="0 0 64 64" fill="none" xmlns="http://www.w3.org/2000/svg">
<rect width="64" height="64" rx="32" fill="#CACACA"/>
<path d="M39.987 35.1407C39.2355 34.2267 38.6103 33.6985 38.5881 33.1629C38.5881 31.8649 38.6547 31.6177 40.9863 29.5781C43.3178 27.5385 43.0513 24.915 43.0513 24.0155C43.0513 22.8412 41.9189 13.8174 31.2605 14.0028C22.7337 14.1512 19.0033 20.29 19.0033 23.0266V39.4671C19.0033 40.5783 18.8034 43.4228 21.5346 46.4513C24.7153 49.9782 28.1295 50.7778 30.7941 50.9632C33.4588 51.1486 36.3898 50.7159 39.987 47.7492C42.9098 45.3388 43.0513 43.2917 43.0513 40.7633C43.0513 38.235 40.7385 36.0547 39.987 35.1407Z" stroke="white" stroke-width="4.87597"/>
<rect x="30.7826" y="18.6244" width="2.34585" height="27.1348" rx="1.15804" fill="white" stroke="white" stroke-width="0.121899"/>
<rect x="26.5874" y="24.0511" width="2.34585" height="16.4048" rx="1.15804" fill="white" stroke="white" stroke-width="0.121899"/>
<rect x="22.3924" y="29.4775" width="2.34585" height="6.04477" rx="1.15804" fill="white" stroke="white" stroke-width="0.121899"/>
<rect x="34.9778" y="23.9275" width="2.34585" height="16.5281" rx="1.15804" fill="white" stroke="white" stroke-width="0.121899"/>
<path d="M51.6367 33.055C51.6367 34.8945 50.1449 36.3857 48.3045 36.3857C46.4642 36.3857 44.9723 34.8945 44.9723 33.055C44.9723 31.2155 46.4642 29.7243 48.3045 29.7243C50.1449 29.7243 51.6367 31.2155 51.6367 33.055Z" fill="white" stroke="white" stroke-width="0.121899"/>
</svg>
