<svg width="82" height="98" viewBox="0 0 82 98" fill="none" xmlns="http://www.w3.org/2000/svg">
<path d="M54.7808 55.1378C53.0341 53.0133 51.5809 51.7858 51.5293 50.5407C51.5293 47.5239 51.6841 46.9492 57.1033 42.2085C62.5226 37.4678 61.9032 31.37 61.9032 29.2792C61.9032 26.5497 59.2711 5.57557 34.4973 6.00655C14.6784 6.35133 6.00757 20.62 6.00757 26.9807V65.1939C6.00757 67.7767 5.54305 74.388 11.8913 81.4273C19.2842 89.625 27.2201 91.4834 33.4135 91.9144C39.6069 92.3454 46.4197 91.3398 54.7808 84.4442C61.5743 78.8415 61.9032 74.0833 61.9032 68.2067C61.9032 62.33 56.5275 57.2623 54.7808 55.1378Z" stroke="#31AD5F" stroke-width="11.3333"/>
<rect x="33.3868" y="16.7486" width="5.45253" height="63.07" rx="2.69167" fill="#31AD5F" stroke="#31AD5F" stroke-width="0.283333"/>
<rect x="23.6358" y="29.3619" width="5.45253" height="38.13" rx="2.69167" fill="#31AD5F" stroke="#31AD5F" stroke-width="0.283333"/>
<rect x="13.8848" y="41.9747" width="5.45253" height="14.05" rx="2.69167" fill="#31AD5F" stroke="#31AD5F" stroke-width="0.283333"/>
<rect x="43.1378" y="29.0748" width="5.45253" height="38.4167" rx="2.69167" fill="#31AD5F" stroke="#31AD5F" stroke-width="0.283333"/>
<path d="M74.1133 42.5483C78.3909 42.5483 81.8584 46.015 81.8584 50.2905C81.8582 54.5659 78.3907 58.0317 74.1133 58.0317C69.8359 58.0317 66.3684 54.5658 66.3682 50.2905C66.3682 46.015 69.8357 42.5484 74.1133 42.5483Z" fill="#31AD5F" stroke="#31AD5F" stroke-width="0.283333"/>
</svg>
