<svg width="44" height="44" viewBox="0 0 44 44" fill="none" xmlns="http://www.w3.org/2000/svg">
<path d="M22 27.5C25.0376 27.5 27.5 25.0376 27.5 22C27.5 18.9624 25.0376 16.5 22 16.5C18.9624 16.5 16.5 18.9624 16.5 22C16.5 25.0376 18.9624 27.5 22 27.5Z" fill="#CACACA"/>
<path d="M36.668 7.33366H30.8563L28.583 4.85866C28.2406 4.48443 27.8243 4.1853 27.3604 3.98019C26.8966 3.77507 26.3952 3.66842 25.888 3.66699H18.1146C17.088 3.66699 16.098 4.10699 15.4013 4.85866L13.1463 7.33366H7.33464C5.31797 7.33366 3.66797 8.98366 3.66797 11.0003V33.0003C3.66797 35.017 5.31797 36.667 7.33464 36.667H36.668C38.6846 36.667 40.3346 35.017 40.3346 33.0003V11.0003C40.3346 8.98366 38.6846 7.33366 36.668 7.33366ZM22.0013 31.167C16.9413 31.167 12.8346 27.0603 12.8346 22.0003C12.8346 16.9403 16.9413 12.8337 22.0013 12.8337C27.0613 12.8337 31.168 16.9403 31.168 22.0003C31.168 27.0603 27.0613 31.167 22.0013 31.167Z" fill="#CACACA"/>
</svg>
