<svg width="70" height="61" viewBox="0 0 70 61" fill="none" xmlns="http://www.w3.org/2000/svg">
<path d="M35 23.45L40.075 28.525C40.3958 28.8458 40.8042 29.0063 41.3 29.0063C41.7958 29.0063 42.2042 28.8458 42.525 28.525C42.8458 28.2042 43.0063 27.7958 43.0063 27.3C43.0063 26.8042 42.8458 26.3958 42.525 26.075L37.45 21L42.525 15.925C42.8458 15.6042 43.0063 15.1958 43.0063 14.7C43.0063 14.2042 42.8458 13.7958 42.525 13.475C42.2042 13.1542 41.7958 12.9937 41.3 12.9937C40.8042 12.9937 40.3958 13.1542 40.075 13.475L35 18.55L29.925 13.475C29.6042 13.1542 29.1958 12.9937 28.7 12.9937C28.2042 12.9937 27.7958 13.1542 27.475 13.475C27.1542 13.7958 26.9938 14.2042 26.9938 14.7C26.9938 15.1958 27.1542 15.6042 27.475 15.925L32.55 21L27.475 26.075C27.1542 26.3958 26.9938 26.8042 26.9938 27.3C26.9938 27.7958 27.1542 28.2042 27.475 28.525C27.7958 28.8458 28.2042 29.0063 28.7 29.0063C29.1958 29.0063 29.6042 28.8458 29.925 28.525L35 23.45ZM35 38.5C32.5792 38.5 30.3042 38.0403 28.175 37.121C26.0458 36.2017 24.1938 34.9551 22.6188 33.3812C21.0438 31.8074 19.7972 29.9553 18.879 27.825C17.9608 25.6947 17.5012 23.4197 17.5 21C17.4988 18.5803 17.9585 16.3053 18.879 14.175C19.7995 12.0447 21.0461 10.1926 22.6188 8.61875C24.1914 7.04492 26.0435 5.79833 28.175 4.879C30.3065 3.95967 32.5815 3.5 35 3.5C37.4185 3.5 39.6935 3.95967 41.825 4.879C43.9565 5.79833 45.8086 7.04492 47.3813 8.61875C48.9539 10.1926 50.2011 12.0447 51.1228 14.175C52.0444 16.3053 52.5035 18.5803 52.5 21C52.4965 23.4197 52.0368 25.6947 51.121 27.825C50.2052 29.9553 48.9586 31.8074 47.3813 33.3812C45.8039 34.9551 43.9518 36.2022 41.825 37.1227C39.6982 38.0432 37.4232 38.5023 35 38.5ZM35 35C38.9083 35 42.2188 33.6437 44.9312 30.9312C47.6438 28.2187 49 24.9083 49 21C49 17.0917 47.6438 13.7812 44.9312 11.0687C42.2188 8.35625 38.9083 7 35 7C31.0917 7 27.7813 8.35625 25.0688 11.0687C22.3563 13.7812 21 17.0917 21 21C21 24.9083 22.3563 28.2187 25.0688 30.9312C27.7813 33.6437 31.0917 35 35 35Z" fill="#616064"/>
<path d="M21.3047 57V45.6875H28.1641V46.9375H22.7109V50.7188H27.8047V51.9531H22.7109V55.75H28.2422V57H21.3047ZM36.5547 48.5312C36.4297 47.4219 35.4141 46.7812 34.0547 46.7812C32.5547 46.7812 31.5703 47.5625 31.5703 48.6406C31.5703 49.8281 32.8984 50.2656 33.7578 50.4844L34.8828 50.7969C36.1016 51.1094 38.0859 51.8125 38.0859 53.9219C38.0859 55.7656 36.6016 57.2031 33.9766 57.2031C31.5391 57.2031 30.0234 55.9375 29.8984 54.0625H31.3359C31.4609 55.3281 32.6328 55.9219 33.9766 55.9219C35.5391 55.9219 36.7109 55.125 36.7109 53.8906C36.7109 52.7969 35.6641 52.375 34.4766 52.0312L33.0859 51.6562C31.3047 51.1406 30.2109 50.2344 30.2109 48.7031C30.2109 46.7969 31.9141 45.5312 34.1016 45.5312C36.2891 45.5312 37.8672 46.8125 37.9297 48.5312H36.5547ZM47.8203 49.25C47.4922 47.6875 46.1484 46.8438 44.6641 46.8438C42.6172 46.8438 41.0234 48.4219 41.0234 51.3438C41.0234 54.2656 42.6172 55.8438 44.6641 55.8438C46.1484 55.8438 47.4766 55 47.8203 53.4531H49.2266C48.8203 55.7656 46.9609 57.1562 44.6641 57.1562C41.7578 57.1562 39.6641 54.9219 39.6641 51.3438C39.6641 47.7656 41.7578 45.5312 44.6641 45.5312C46.9453 45.5312 48.8047 46.9062 49.2266 49.25H47.8203Z" fill="#616064"/>
</svg>
