<svg width="174" height="174" viewBox="0 0 174 174" fill="none" xmlns="http://www.w3.org/2000/svg">
<path fill-rule="evenodd" clip-rule="evenodd" d="M87 152.25C95.5688 152.25 104.054 150.562 111.97 147.283C119.887 144.004 127.08 139.198 133.139 133.139C139.198 127.08 144.004 119.887 147.283 111.97C150.562 104.054 152.25 95.5688 152.25 87C152.25 78.4312 150.562 69.9464 147.283 62.0299C144.004 54.1134 139.198 46.9203 133.139 40.8613C127.08 34.8023 119.887 29.996 111.97 26.7169C104.054 23.4377 95.5688 21.75 87 21.75C69.6946 21.75 53.098 28.6245 40.8613 40.8613C28.6245 53.098 21.75 69.6946 21.75 87C21.75 104.305 28.6245 120.902 40.8613 133.139C53.098 145.375 69.6946 152.25 87 152.25ZM85.318 113.39L121.568 69.89L110.432 60.61L79.257 98.0127L63.1257 81.8743L52.8743 92.1257L74.6243 113.876L80.2358 119.487L85.318 113.39Z" fill="url(#paint0_linear_734_2990)"/>
<defs>
<linearGradient id="paint0_linear_734_2990" x1="87" y1="21.75" x2="87" y2="152.25" gradientUnits="userSpaceOnUse">
<stop stop-color="#31AD5F"/>
<stop offset="1" stop-color="#196AC0"/>
</linearGradient>
</defs>
</svg>
