<svg width="285" height="340" viewBox="0 0 285 340" fill="none" xmlns="http://www.w3.org/2000/svg">
<path d="M190.09 191.411C184 184 178.933 179.718 178.753 175.375C178.753 164.851 179.293 162.846 198.189 146.309C217.085 129.771 214.925 108.5 214.925 101.207C214.925 91.6851 205.747 18.5194 119.365 20.0228C50.26 21.2256 20.0264 71 20.0264 93.1885V226.49C20.0264 235.5 18.4067 258.563 40.5421 283.119C66.3199 311.715 93.9908 318.198 115.586 319.701C137.182 321.205 160.937 317.697 190.09 293.642C213.778 274.098 214.925 257.5 214.925 237C214.925 216.5 196.181 198.822 190.09 191.411Z" stroke="#31AD5F" stroke-width="40"/>
<rect x="115.5" y="57.5" width="19" height="220" rx="9.5" fill="#31AD5F" stroke="#31AD5F"/>
<rect x="81.5" y="101.5" width="19" height="133" rx="9.5" fill="#31AD5F" stroke="#31AD5F"/>
<rect x="47.5" y="145.5" width="19" height="49" rx="9.5" fill="#31AD5F" stroke="#31AD5F"/>
<rect x="149.5" y="100.5" width="19" height="134" rx="9.5" fill="#31AD5F" stroke="#31AD5F"/>
<circle cx="257.5" cy="174.5" r="27" fill="#31AD5F" stroke="#31AD5F"/>
</svg>
