<svg width="60" height="34" viewBox="0 0 60 34" fill="none" xmlns="http://www.w3.org/2000/svg">
<path d="M12 10.5C12.9283 10.5 13.8185 10.8687 14.4749 11.5251C15.1313 12.1815 15.5 13.0717 15.5 14C15.5 14.9283 15.1313 15.8185 14.4749 16.4749C13.8185 17.1313 12.9283 17.5 12 17.5C11.0717 17.5 10.1815 17.1313 9.52513 16.4749C8.86875 15.8185 8.5 14.9283 8.5 14C8.5 13.0717 8.86875 12.1815 9.52513 11.5251C10.1815 10.8687 11.0717 10.5 12 10.5ZM5 13C5.56 13 6.08 13.15 6.53 13.42C6.38 14.85 6.8 16.27 7.66 17.38C7.16 18.34 6.16 19 5 19C4.20435 19 3.44129 18.6839 2.87868 18.1213C2.31607 17.5587 2 16.7956 2 16C2 15.2044 2.31607 14.4413 2.87868 13.8787C3.44129 13.3161 4.20435 13 5 13ZM19 13C19.7956 13 20.5587 13.3161 21.1213 13.8787C21.6839 14.4413 22 15.2044 22 16C22 16.7956 21.6839 17.5587 21.1213 18.1213C20.5587 18.6839 19.7956 19 19 19C17.84 19 16.84 18.34 16.34 17.38C17.2115 16.2542 17.6161 14.8362 17.47 13.42C17.92 13.15 18.44 13 19 13ZM5.5 23.25C5.5 21.18 8.41 19.5 12 19.5C15.59 19.5 18.5 21.18 18.5 23.25V25H5.5V23.25ZM0 25V23.5C0 22.11 1.89 20.94 4.45 20.6C3.86 21.28 3.5 22.22 3.5 23.25V25H0ZM24 25H20.5V23.25C20.5 22.22 20.14 21.28 19.55 20.6C22.11 20.94 24 22.11 24 23.5V25Z" fill="#38373B"/>
<path d="M37.0879 9.60547V11.1875H31.3926V12.6641H36.6309V14.1934H31.3926V15.7578C34.3633 15.749 36.1738 15.6963 38.2656 15.3535L38.459 16.8828C36.1738 17.2871 34.1875 17.3223 30.7598 17.3047H29.4062V9.60547H37.0879ZM41.7637 8.69141V18.1309H39.7949V8.69141H41.7637ZM41.7637 18.834V24.3711H31.2168V18.834H41.7637ZM33.1504 20.3457V22.7891H39.8477V20.3457H33.1504ZM57.4082 8.69141V20.7148H55.4395V19.3262H52.3281V17.9551H55.4395V8.69141H57.4082ZM57.7773 22.666V24.248H46.123V19.5547H48.0742V22.666H57.7773ZM44.0137 15.8281C46.9492 15.8105 50.8867 15.7754 54.2617 15.3535L54.3672 16.7598C53.0576 16.9795 51.7041 17.1289 50.3594 17.2168V20.2754H48.4082V17.3223C46.9229 17.3838 45.5078 17.3926 44.2598 17.3926L44.0137 15.8281ZM49.1992 9.27148C51.5195 9.27148 53.1367 10.4141 53.1543 12.084C53.1367 13.7891 51.5195 14.8789 49.1992 14.8789C46.8438 14.8789 45.2266 13.7891 45.2266 12.084C45.2266 10.4141 46.8438 9.27148 49.1992 9.27148ZM49.1992 10.7129C47.9336 10.7129 47.0723 11.2227 47.0723 12.084C47.0723 12.9453 47.9336 13.4551 49.1992 13.4551C50.4121 13.4551 51.2734 12.9453 51.291 12.084C51.2734 11.2227 50.4121 10.7129 49.1992 10.7129Z" fill="#38373B"/>
</svg>
