<svg width="24" height="24" viewBox="0 0 24 24" fill="none" xmlns="http://www.w3.org/2000/svg">
<g clip-path="url(#clip0_1268_3350)">
<path d="M8.4 16L12 12.4L15.6 16L17 14.6L13.4 11L17 7.4L15.6 6L12 9.6L8.4 6L7 7.4L10.6 11L7 14.6L8.4 16ZM12 21C10.6167 21 9.31667 20.7373 8.1 20.212C6.88334 19.6867 5.825 18.9743 4.925 18.075C4.025 17.1757 3.31267 16.1173 2.788 14.9C2.26333 13.6827 2.00067 12.3827 2 11C1.99933 9.61733 2.262 8.31733 2.788 7.1C3.314 5.88267 4.02633 4.82433 4.925 3.925C5.82367 3.02567 6.882 2.31333 8.1 1.788C9.318 1.26267 10.618 1 12 1C13.382 1 14.682 1.26267 15.9 1.788C17.118 2.31333 18.1763 3.02567 19.075 3.925C19.9737 4.82433 20.6863 5.88267 21.213 7.1C21.7397 8.31733 22.002 9.61733 22 11C21.998 12.3827 21.7353 13.6827 21.212 14.9C20.6887 16.1173 19.9763 17.1757 19.075 18.075C18.1737 18.9743 17.1153 19.687 15.9 20.213C14.6847 20.739 13.3847 21.0013 12 21Z" fill="#FF0000"/>
</g>
<defs>
<clipPath id="clip0_1268_3350">
<rect width="24" height="24" fill="white"/>
</clipPath>
</defs>
</svg>
