<svg width="58" height="58" viewBox="0 0 58 58" fill="none" xmlns="http://www.w3.org/2000/svg">
<path fill-rule="evenodd" clip-rule="evenodd" d="M30.7003 41.6365C33.7609 41.2248 36.5679 39.7162 38.6002 37.3911C40.6325 35.066 41.7518 32.0823 41.7503 28.9942V24.7498H38.3503V28.9942C38.3503 31.4739 37.3652 33.8522 35.6118 35.6056C33.8583 37.3591 31.4801 38.3442 29.0003 38.3442C26.5206 38.3442 24.1423 37.3591 22.3889 35.6056C20.6354 33.8522 19.6503 31.4739 19.6503 28.9942V24.7498H16.2503V28.9942C16.2488 32.0823 17.3682 35.066 19.4004 37.3911C21.4327 39.7162 24.2398 41.2248 27.3003 41.6365V45.9998H30.7003V41.6365ZM29.0003 57.3332C13.3518 57.3332 0.666992 44.6483 0.666992 28.9998C0.666992 13.3513 13.3518 0.666504 29.0003 0.666504C44.6488 0.666504 57.3337 13.3513 57.3337 28.9998C57.3337 44.6483 44.6488 57.3332 29.0003 57.3332ZM29.0003 13.4165C27.4974 13.4165 26.0561 14.0135 24.9934 15.0762C23.9307 16.1389 23.3337 17.5803 23.3337 19.0832V28.9998C23.3337 30.5027 23.9307 31.9441 24.9934 33.0068C26.0561 34.0695 27.4974 34.6665 29.0003 34.6665C30.5032 34.6665 31.9446 34.0695 33.0073 33.0068C34.07 31.9441 34.667 30.5027 34.667 28.9998V19.0832C34.667 17.5803 34.07 16.1389 33.0073 15.0762C31.9446 14.0135 30.5032 13.4165 29.0003 13.4165Z" fill="#31AD5F"/>
</svg>
