<svg width="58" height="58" viewBox="0 0 58 58" fill="none" xmlns="http://www.w3.org/2000/svg">
<path fill-rule="evenodd" clip-rule="evenodd" d="M30.7003 41.6367C33.7609 41.225 36.5679 39.7165 38.6002 37.3913C40.6325 35.0662 41.7518 32.0825 41.7503 28.9944V24.7501H38.3503V28.9944C38.3503 31.4742 37.3652 33.8524 35.6118 35.6059C33.8583 37.3593 31.4801 38.3444 29.0003 38.3444C26.5206 38.3444 24.1423 37.3593 22.3889 35.6059C20.6354 33.8524 19.6503 31.4742 19.6503 28.9944V24.7501H16.2503V28.9944C16.2488 32.0825 17.3682 35.0662 19.4004 37.3913C21.4327 39.7165 24.2398 41.225 27.3003 41.6367V46.0001H30.7003V41.6367ZM29.0003 57.3334C13.3518 57.3334 0.666992 44.6486 0.666992 29.0001C0.666992 13.3516 13.3518 0.666748 29.0003 0.666748C44.6488 0.666748 57.3337 13.3516 57.3337 29.0001C57.3337 44.6486 44.6488 57.3334 29.0003 57.3334ZM29.0003 13.4167C27.4974 13.4167 26.0561 14.0138 24.9934 15.0765C23.9307 16.1392 23.3337 17.5805 23.3337 19.0834V29.0001C23.3337 30.503 23.9307 31.9443 24.9934 33.007C26.0561 34.0697 27.4974 34.6667 29.0003 34.6667C30.5032 34.6667 31.9446 34.0697 33.0073 33.007C34.07 31.9443 34.667 30.503 34.667 29.0001V19.0834C34.667 17.5805 34.07 16.1392 33.0073 15.0765C31.9446 14.0138 30.5032 13.4167 29.0003 13.4167Z" fill="#84CE9F"/>
</svg>
