<svg width="36" height="36" viewBox="0 0 36 36" fill="none" xmlns="http://www.w3.org/2000/svg">
<path d="M18 20.45L23.075 25.525C23.3958 25.8458 23.8042 26.0063 24.3 26.0063C24.7958 26.0063 25.2042 25.8458 25.525 25.525C25.8458 25.2042 26.0063 24.7958 26.0063 24.3C26.0063 23.8042 25.8458 23.3958 25.525 23.075L20.45 18L25.525 12.925C25.8458 12.6042 26.0063 12.1958 26.0063 11.7C26.0063 11.2042 25.8458 10.7958 25.525 10.475C25.2042 10.1542 24.7958 9.99375 24.3 9.99375C23.8042 9.99375 23.3958 10.1542 23.075 10.475L18 15.55L12.925 10.475C12.6042 10.1542 12.1958 9.99375 11.7 9.99375C11.2042 9.99375 10.7958 10.1542 10.475 10.475C10.1542 10.7958 9.99375 11.2042 9.99375 11.7C9.99375 12.1958 10.1542 12.6042 10.475 12.925L15.55 18L10.475 23.075C10.1542 23.3958 9.99375 23.8042 9.99375 24.3C9.99375 24.7958 10.1542 25.2042 10.475 25.525C10.7958 25.8458 11.2042 26.0063 11.7 26.0063C12.1958 26.0063 12.6042 25.8458 12.925 25.525L18 20.45ZM18 35.5C15.5792 35.5 13.3042 35.0403 11.175 34.121C9.04584 33.2017 7.19375 31.9551 5.61875 30.3812C4.04375 28.8074 2.79717 26.9553 1.879 24.825C0.960836 22.6947 0.501169 20.4197 0.500002 18C0.498836 15.5803 0.958502 13.3053 1.879 11.175C2.7995 9.04467 4.04609 7.19258 5.61875 5.61875C7.19142 4.04492 9.0435 2.79833 11.175 1.879C13.3065 0.959667 15.5815 0.5 18 0.5C20.4185 0.5 22.6935 0.959667 24.825 1.879C26.9565 2.79833 28.8086 4.04492 30.3813 5.61875C31.9539 7.19258 33.2011 9.04467 34.1228 11.175C35.0444 13.3053 35.5035 15.5803 35.5 18C35.4965 20.4197 35.0368 22.6947 34.121 24.825C33.2052 26.9553 31.9586 28.8074 30.3813 30.3812C28.8039 31.9551 26.9518 33.2022 24.825 34.1227C22.6982 35.0432 20.4232 35.5023 18 35.5ZM18 32C21.9083 32 25.2188 30.6437 27.9312 27.9312C30.6438 25.2187 32 21.9083 32 18C32 14.0917 30.6438 10.7812 27.9312 8.06875C25.2188 5.35625 21.9083 4 18 4C14.0917 4 10.7813 5.35625 8.06875 8.06875C5.35625 10.7812 4 14.0917 4 18C4 21.9083 5.35625 25.2187 8.06875 27.9312C10.7813 30.6437 14.0917 32 18 32Z" fill="#616064"/>
</svg>
