<svg width="24" height="24" viewBox="0 0 24 24" fill="none" xmlns="http://www.w3.org/2000/svg">
<g clip-path="url(#clip0_661_15723)">
<path d="M2 5.47L3.3 4.2L20.8 21.72L19.53 23L17.53 21H4.8C4.26957 21 3.76086 20.7893 3.38579 20.4142C3.01071 20.0391 2.8 19.5304 2.8 19V7C2.8 6.78 2.84 6.57 2.9 6.37L2 5.47ZM7.8 5L9.8 3H15.8L17.8 5H20.8C21.3304 5 21.8391 5.21071 22.2142 5.58579C22.5893 5.96086 22.8 6.46957 22.8 7V19C22.8 19.6 22.54 20.13 22.12 20.5L17.13 15.5C17.56 14.77 17.8 13.91 17.8 13C17.8 11.6739 17.2732 10.4021 16.3355 9.46447C15.3979 8.52678 14.1261 8 12.8 8C11.89 8 11.03 8.24 10.3 8.67L6.62 5H7.8ZM7.8 13C7.8 14.3261 8.32678 15.5979 9.26447 16.5355C10.2021 17.4732 11.4739 18 12.8 18C13.3 18 13.83 17.92 14.3 17.77L12.52 16C11.8242 15.9254 11.1748 15.6149 10.68 15.12C10.1851 14.6252 9.87458 13.9758 9.8 13.28L8.03 11.5C7.88 11.97 7.8 12.5 7.8 13ZM12.8 10C13.5956 10 14.3587 10.3161 14.9213 10.8787C15.4839 11.4413 15.8 12.2044 15.8 13C15.8005 13.3406 15.743 13.6787 15.63 14L11.8 10.17C12.1213 10.057 12.4594 9.99949 12.8 10Z" fill="#FF4646"/>
</g>
<defs>
<clipPath id="clip0_661_15723">
<rect width="24" height="24" fill="white"/>
</clipPath>
</defs>
</svg>
