<svg width="344" height="160" viewBox="0 0 344 160" fill="none" xmlns="http://www.w3.org/2000/svg">
<rect x="28" y="61" width="12" height="28" rx="6" fill="url(#paint0_linear_591_2041)"/>
<rect y="61" width="12" height="28" rx="6" fill="url(#paint1_linear_591_2041)"/>
<rect x="332" y="61" width="12" height="28" rx="6" fill="url(#paint2_linear_591_2041)"/>
<rect width="12" height="28" rx="6" transform="matrix(-1 0 0 1 316 61)" fill="url(#paint3_linear_591_2041)"/>
<rect x="56" y="61" width="12" height="28" rx="6" fill="url(#paint4_linear_591_2041)"/>
<rect width="12" height="28" rx="6" transform="matrix(-1 0 0 1 288 61)" fill="url(#paint5_linear_591_2041)"/>
<rect x="84" y="61" width="12" height="28" rx="6" fill="url(#paint6_linear_591_2041)"/>
<rect width="12" height="28" rx="6" transform="matrix(-1 0 0 1 260 61)" fill="url(#paint7_linear_591_2041)"/>
<rect x="112" y="61" width="12" height="28" rx="6" fill="url(#paint8_linear_591_2041)"/>
<rect width="12" height="28" rx="6" transform="matrix(-1 0 0 1 232 61)" fill="url(#paint9_linear_591_2041)"/>
<rect x="140" y="61" width="12" height="28" rx="6" fill="url(#paint10_linear_591_2041)"/>
<rect width="12" height="28" rx="6" transform="matrix(-1 0 0 1 208 61)" fill="url(#paint11_linear_591_2041)"/>
<rect x="168" y="61" width="12" height="28" rx="6" fill="url(#paint12_linear_591_2041)"/>
<defs>
<linearGradient id="paint0_linear_591_2041" x1="34" y1="61" x2="34" y2="89" gradientUnits="userSpaceOnUse">
<stop stop-color="#31AD5F"/>
<stop offset="1" stop-color="#196AC0"/>
</linearGradient>
<linearGradient id="paint1_linear_591_2041" x1="6" y1="61" x2="6" y2="89" gradientUnits="userSpaceOnUse">
<stop stop-color="#31AD5F"/>
<stop offset="1" stop-color="#196AC0"/>
</linearGradient>
<linearGradient id="paint2_linear_591_2041" x1="338" y1="61" x2="338" y2="89" gradientUnits="userSpaceOnUse">
<stop stop-color="#31AD5F"/>
<stop offset="1" stop-color="#196AC0"/>
</linearGradient>
<linearGradient id="paint3_linear_591_2041" x1="6" y1="0" x2="6" y2="28" gradientUnits="userSpaceOnUse">
<stop stop-color="#31AD5F"/>
<stop offset="1" stop-color="#196AC0"/>
</linearGradient>
<linearGradient id="paint4_linear_591_2041" x1="62" y1="61" x2="62" y2="89" gradientUnits="userSpaceOnUse">
<stop stop-color="#31AD5F"/>
<stop offset="1" stop-color="#196AC0"/>
</linearGradient>
<linearGradient id="paint5_linear_591_2041" x1="6" y1="0" x2="6" y2="28" gradientUnits="userSpaceOnUse">
<stop stop-color="#31AD5F"/>
<stop offset="1" stop-color="#196AC0"/>
</linearGradient>
<linearGradient id="paint6_linear_591_2041" x1="90" y1="61" x2="90" y2="89" gradientUnits="userSpaceOnUse">
<stop stop-color="#31AD5F"/>
<stop offset="1" stop-color="#196AC0"/>
</linearGradient>
<linearGradient id="paint7_linear_591_2041" x1="6" y1="0" x2="6" y2="28" gradientUnits="userSpaceOnUse">
<stop stop-color="#31AD5F"/>
<stop offset="1" stop-color="#196AC0"/>
</linearGradient>
<linearGradient id="paint8_linear_591_2041" x1="118" y1="61" x2="118" y2="89" gradientUnits="userSpaceOnUse">
<stop stop-color="#31AD5F"/>
<stop offset="1" stop-color="#196AC0"/>
</linearGradient>
<linearGradient id="paint9_linear_591_2041" x1="6" y1="0" x2="6" y2="28" gradientUnits="userSpaceOnUse">
<stop stop-color="#31AD5F"/>
<stop offset="1" stop-color="#196AC0"/>
</linearGradient>
<linearGradient id="paint10_linear_591_2041" x1="146" y1="61" x2="146" y2="89" gradientUnits="userSpaceOnUse">
<stop stop-color="#31AD5F"/>
<stop offset="1" stop-color="#196AC0"/>
</linearGradient>
<linearGradient id="paint11_linear_591_2041" x1="6" y1="0" x2="6" y2="28" gradientUnits="userSpaceOnUse">
<stop stop-color="#31AD5F"/>
<stop offset="1" stop-color="#196AC0"/>
</linearGradient>
<linearGradient id="paint12_linear_591_2041" x1="174" y1="61" x2="174" y2="89" gradientUnits="userSpaceOnUse">
<stop stop-color="#31AD5F"/>
<stop offset="1" stop-color="#196AC0"/>
</linearGradient>
</defs>
</svg>
