<svg width="140" height="140" viewBox="0 0 140 140" fill="none" xmlns="http://www.w3.org/2000/svg">
<rect width="140" height="140" rx="70" fill="#CACACA"/>
<path d="M86.222 75.7721C84.6016 73.8013 83.2535 72.6625 83.2056 71.5074C83.2056 68.7088 83.3493 68.1757 88.3766 63.7777C93.404 59.3798 92.8294 53.723 92.8294 51.7834C92.8294 49.2513 90.3876 29.7938 67.4053 30.1936C49.0196 30.5134 40.9758 43.7503 40.9758 49.6511V85.101C40.9758 87.497 40.5448 93.6303 46.4341 100.161C53.2924 107.765 60.6543 109.49 66.3999 109.889C72.1454 110.289 78.4655 109.356 86.222 102.959C92.5242 97.7617 92.8294 93.3477 92.8294 87.8959C92.8294 82.4442 87.8424 77.743 86.222 75.7721Z" stroke="white" stroke-width="10.5138"/>
<rect x="66.3775" y="40.1588" width="5.05824" height="58.5093" rx="2.49703" fill="white" stroke="white" stroke-width="0.262845"/>
<rect x="57.3306" y="51.8604" width="5.05824" height="35.3728" rx="2.49703" fill="white" stroke="white" stroke-width="0.262845"/>
<rect x="48.2857" y="63.5606" width="5.05824" height="13.034" rx="2.49703" fill="white" stroke="white" stroke-width="0.262845"/>
<rect x="75.4224" y="51.5938" width="5.05824" height="35.6387" rx="2.49703" fill="white" stroke="white" stroke-width="0.262845"/>
<path d="M111.339 71.2752C111.339 75.2416 108.123 78.4571 104.154 78.4571C100.186 78.4571 96.9693 75.2416 96.9693 71.2752C96.9693 67.3088 100.186 64.0933 104.154 64.0933C108.123 64.0933 111.339 67.3088 111.339 71.2752Z" fill="white" stroke="white" stroke-width="0.262845"/>
</svg>
