<svg width="344" height="160" viewBox="0 0 344 160" fill="none" xmlns="http://www.w3.org/2000/svg">
<rect x="28" y="37" width="12" height="76" rx="6" fill="url(#paint0_linear_590_1954)"/>
<rect y="61" width="12" height="28" rx="6" fill="url(#paint1_linear_590_1954)"/>
<rect x="332" y="61" width="12" height="28" rx="6" fill="url(#paint2_linear_590_1954)"/>
<rect width="12" height="76" rx="6" transform="matrix(-1 0 0 1 316 37)" fill="url(#paint3_linear_590_1954)"/>
<rect x="56" y="11" width="12" height="118" rx="6" fill="url(#paint4_linear_590_1954)"/>
<rect width="12" height="116" rx="6" transform="matrix(-1 0 0 1 288 11)" fill="url(#paint5_linear_590_1954)"/>
<rect x="84" y="16" width="12" height="134" rx="6" fill="url(#paint6_linear_590_1954)"/>
<rect width="12" height="103" rx="6" transform="matrix(-1 0 0 1 260 16)" fill="url(#paint7_linear_590_1954)"/>
<rect x="112" width="12" height="134" rx="6" fill="url(#paint8_linear_590_1954)"/>
<rect width="12" height="160" rx="6" transform="matrix(-1 0 0 1 232 0)" fill="url(#paint9_linear_590_1954)"/>
<rect x="140" y="22" width="12" height="134" rx="6" fill="url(#paint10_linear_590_1954)"/>
<rect width="12" height="120" rx="6" transform="matrix(-1 0 0 1 208 22)" fill="url(#paint11_linear_590_1954)"/>
<rect x="168" y="8" width="12" height="134" rx="6" fill="url(#paint12_linear_590_1954)"/>
<defs>
<linearGradient id="paint0_linear_590_1954" x1="34" y1="37" x2="34" y2="113" gradientUnits="userSpaceOnUse">
<stop stop-color="#31AD5F"/>
<stop offset="1" stop-color="#196AC0"/>
</linearGradient>
<linearGradient id="paint1_linear_590_1954" x1="6" y1="61" x2="6" y2="89" gradientUnits="userSpaceOnUse">
<stop stop-color="#31AD5F"/>
<stop offset="1" stop-color="#196AC0"/>
</linearGradient>
<linearGradient id="paint2_linear_590_1954" x1="338" y1="61" x2="338" y2="89" gradientUnits="userSpaceOnUse">
<stop stop-color="#31AD5F"/>
<stop offset="1" stop-color="#196AC0"/>
</linearGradient>
<linearGradient id="paint3_linear_590_1954" x1="6" y1="0" x2="6" y2="76" gradientUnits="userSpaceOnUse">
<stop stop-color="#31AD5F"/>
<stop offset="1" stop-color="#196AC0"/>
</linearGradient>
<linearGradient id="paint4_linear_590_1954" x1="62" y1="11" x2="62" y2="129" gradientUnits="userSpaceOnUse">
<stop stop-color="#31AD5F"/>
<stop offset="1" stop-color="#196AC0"/>
</linearGradient>
<linearGradient id="paint5_linear_590_1954" x1="6" y1="0" x2="6" y2="116" gradientUnits="userSpaceOnUse">
<stop stop-color="#31AD5F"/>
<stop offset="1" stop-color="#196AC0"/>
</linearGradient>
<linearGradient id="paint6_linear_590_1954" x1="90" y1="16" x2="90" y2="150" gradientUnits="userSpaceOnUse">
<stop stop-color="#31AD5F"/>
<stop offset="1" stop-color="#196AC0"/>
</linearGradient>
<linearGradient id="paint7_linear_590_1954" x1="6" y1="0" x2="6" y2="103" gradientUnits="userSpaceOnUse">
<stop stop-color="#31AD5F"/>
<stop offset="1" stop-color="#196AC0"/>
</linearGradient>
<linearGradient id="paint8_linear_590_1954" x1="118" y1="0" x2="118" y2="134" gradientUnits="userSpaceOnUse">
<stop stop-color="#31AD5F"/>
<stop offset="1" stop-color="#196AC0"/>
</linearGradient>
<linearGradient id="paint9_linear_590_1954" x1="6" y1="0" x2="6" y2="160" gradientUnits="userSpaceOnUse">
<stop stop-color="#31AD5F"/>
<stop offset="1" stop-color="#196AC0"/>
</linearGradient>
<linearGradient id="paint10_linear_590_1954" x1="146" y1="22" x2="146" y2="156" gradientUnits="userSpaceOnUse">
<stop stop-color="#31AD5F"/>
<stop offset="1" stop-color="#196AC0"/>
</linearGradient>
<linearGradient id="paint11_linear_590_1954" x1="6" y1="0" x2="6" y2="120" gradientUnits="userSpaceOnUse">
<stop stop-color="#31AD5F"/>
<stop offset="1" stop-color="#196AC0"/>
</linearGradient>
<linearGradient id="paint12_linear_590_1954" x1="174" y1="8" x2="174" y2="142" gradientUnits="userSpaceOnUse">
<stop stop-color="#31AD5F"/>
<stop offset="1" stop-color="#196AC0"/>
</linearGradient>
</defs>
</svg>
